<svg id="visual" viewBox="0 0 1920 540" width="1920" height="540" xmlns="http://www.w3.org/2000/svg" xmlns:xlink="http://www.w3.org/1999/xlink" version="1.1"><g stroke-width="1" stroke-linejoin="bevel"><path d="M997 261L954 406L1080.1 283Z" fill="#4871c4" stroke="#4871c4"></path><path d="M954 406L1078.1 433L1080.1 283Z" fill="#4e7ad8" stroke="#4e7ad8"></path><path d="M847.9 275L843.9 360L954 406Z" fill="#5583ec" stroke="#5583ec"></path><path d="M1080.1 283L965 178L997 261Z" fill="#4e7ad8" stroke="#4e7ad8"></path><path d="M997 261L847.9 275L954 406Z" fill="#4367b0" stroke="#4367b0"></path><path d="M965 178L847.9 275L997 261Z" fill="#5583ec" stroke="#5583ec"></path><path d="M924 540L1078.1 433L954 406Z" fill="#5583ec" stroke="#5583ec"></path><path d="M924 540L1109.1 540L1078.1 433Z" fill="#262930" stroke="#262930"></path><path d="M1078.1 433L1236.3 410L1080.1 283Z" fill="#4367b0" stroke="#4367b0"></path><path d="M839.9 540L924 540L954 406Z" fill="#4871c4" stroke="#4871c4"></path><path d="M1109.1 540L1236.3 410L1078.1 433Z" fill="#4871c4" stroke="#4871c4"></path><path d="M1080.1 283L1143.1 98L965 178Z" fill="#4367b0" stroke="#4367b0"></path><path d="M843.9 360L839.9 540L954 406Z" fill="#364c76" stroke="#364c76"></path><path d="M1236.3 410L1266.3 231L1080.1 283Z" fill="#4367b0" stroke="#4367b0"></path><path d="M1266.3 231L1143.1 98L1080.1 283Z" fill="#2f3a52" stroke="#2f3a52"></path><path d="M1109.1 540L1227.3 540L1236.3 410Z" fill="#2f3a52" stroke="#2f3a52"></path><path d="M1236.3 410L1395.4 292L1266.3 231Z" fill="#4367b0" stroke="#4367b0"></path><path d="M861.9 0L801.9 155L965 178Z" fill="#4e7ad8" stroke="#4e7ad8"></path><path d="M965 178L801.9 155L847.9 275Z" fill="#4367b0" stroke="#4367b0"></path><path d="M847.9 275L673.7 269L843.9 360Z" fill="#324364" stroke="#324364"></path><path d="M843.9 360L686.7 540L839.9 540Z" fill="#4871c4" stroke="#4871c4"></path><path d="M1266.3 231L1273.3 142L1143.1 98Z" fill="#3a5589" stroke="#3a5589"></path><path d="M1097.1 0L950 0L965 178Z" fill="#3a5589" stroke="#3a5589"></path><path d="M1097.1 0L965 178L1143.1 98Z" fill="#324364" stroke="#324364"></path><path d="M685.7 113L673.7 269L801.9 155Z" fill="#4e7ad8" stroke="#4e7ad8"></path><path d="M801.9 155L673.7 269L847.9 275Z" fill="#3a5589" stroke="#3a5589"></path><path d="M1211.3 0L1097.1 0L1143.1 98Z" fill="#4367b0" stroke="#4367b0"></path><path d="M1337.4 540L1384.4 414L1236.3 410Z" fill="#4871c4" stroke="#4871c4"></path><path d="M1266.3 231L1361.4 169L1273.3 142Z" fill="#5583ec" stroke="#5583ec"></path><path d="M1227.3 540L1337.4 540L1236.3 410Z" fill="#3e5e9c" stroke="#3e5e9c"></path><path d="M950 0L861.9 0L965 178Z" fill="#364c76" stroke="#364c76"></path><path d="M1384.4 414L1395.4 292L1236.3 410Z" fill="#262930" stroke="#262930"></path><path d="M636.7 441L686.7 540L843.9 360Z" fill="#4e7ad8" stroke="#4e7ad8"></path><path d="M1395.4 292L1361.4 169L1266.3 231Z" fill="#4871c4" stroke="#4871c4"></path><path d="M1273.3 142L1211.3 0L1143.1 98Z" fill="#3e5e9c" stroke="#3e5e9c"></path><path d="M673.7 269L636.7 441L843.9 360Z" fill="#5583ec" stroke="#5583ec"></path><path d="M1383.4 0L1211.3 0L1273.3 142Z" fill="#4871c4" stroke="#4871c4"></path><path d="M861.9 0L685.7 113L801.9 155Z" fill="#2f3a52" stroke="#2f3a52"></path><path d="M673.7 269L566.6 316L636.7 441Z" fill="#364c76" stroke="#364c76"></path><path d="M510.6 160L566.6 316L673.7 269Z" fill="#262930" stroke="#262930"></path><path d="M636.7 441L507.6 540L686.7 540Z" fill="#364c76" stroke="#364c76"></path><path d="M1478.6 428L1466.6 225L1395.4 292Z" fill="#2b3241" stroke="#2b3241"></path><path d="M1395.4 292L1466.6 225L1361.4 169Z" fill="#2b3241" stroke="#2b3241"></path><path d="M1361.4 169L1383.4 0L1273.3 142Z" fill="#2f3a52" stroke="#2f3a52"></path><path d="M1478.6 428L1395.4 292L1384.4 414Z" fill="#2b3241" stroke="#2b3241"></path><path d="M1337.4 540L1478.6 428L1384.4 414Z" fill="#4871c4" stroke="#4871c4"></path><path d="M861.9 0L660.7 0L685.7 113Z" fill="#2f3a52" stroke="#2f3a52"></path><path d="M685.7 113L510.6 160L673.7 269Z" fill="#3e5e9c" stroke="#3e5e9c"></path><path d="M1546.6 127L1383.4 0L1361.4 169Z" fill="#3a5589" stroke="#3a5589"></path><path d="M392.4 231L509.6 377L566.6 316Z" fill="#4367b0" stroke="#4367b0"></path><path d="M566.6 316L509.6 377L636.7 441Z" fill="#4e7ad8" stroke="#4e7ad8"></path><path d="M555.6 0L510.6 160L685.7 113Z" fill="#364c76" stroke="#364c76"></path><path d="M431.4 540L507.6 540L400.4 447Z" fill="#5583ec" stroke="#5583ec"></path><path d="M509.6 377L507.6 540L636.7 441Z" fill="#4367b0" stroke="#4367b0"></path><path d="M1337.4 540L1534.6 540L1478.6 428Z" fill="#3a5589" stroke="#3a5589"></path><path d="M1616.7 291L1546.6 127L1466.6 225Z" fill="#3a5589" stroke="#3a5589"></path><path d="M1466.6 225L1546.6 127L1361.4 169Z" fill="#4871c4" stroke="#4871c4"></path><path d="M1616.7 291L1466.6 225L1478.6 428Z" fill="#4871c4" stroke="#4871c4"></path><path d="M660.7 0L555.6 0L685.7 113Z" fill="#3a5589" stroke="#3a5589"></path><path d="M1621.7 388L1616.7 291L1478.6 428Z" fill="#364c76" stroke="#364c76"></path><path d="M1607.7 0L1511.6 0L1546.6 127Z" fill="#2b3241" stroke="#2b3241"></path><path d="M1546.6 127L1511.6 0L1383.4 0Z" fill="#3e5e9c" stroke="#3e5e9c"></path><path d="M1534.6 540L1621.7 388L1478.6 428Z" fill="#3a5589" stroke="#3a5589"></path><path d="M400.4 447L507.6 540L509.6 377Z" fill="#3e5e9c" stroke="#3e5e9c"></path><path d="M392.4 231L400.4 447L509.6 377Z" fill="#364c76" stroke="#364c76"></path><path d="M392.4 231L566.6 316L510.6 160Z" fill="#4871c4" stroke="#4871c4"></path><path d="M417.4 97L392.4 231L510.6 160Z" fill="#2f3a52" stroke="#2f3a52"></path><path d="M1616.7 291L1629.7 137L1546.6 127Z" fill="#3e5e9c" stroke="#3e5e9c"></path><path d="M1821.9 261L1629.7 137L1616.7 291Z" fill="#4367b0" stroke="#4367b0"></path><path d="M555.6 0L417.4 97L510.6 160Z" fill="#262930" stroke="#262930"></path><path d="M1629.7 137L1607.7 0L1546.6 127Z" fill="#364c76" stroke="#364c76"></path><path d="M1534.6 540L1686.7 540L1621.7 388Z" fill="#324364" stroke="#324364"></path><path d="M1621.7 388L1798.9 388L1616.7 291Z" fill="#364c76" stroke="#364c76"></path><path d="M555.6 0L401.4 0L417.4 97Z" fill="#2f3a52" stroke="#2f3a52"></path><path d="M417.4 97L319.3 183L392.4 231Z" fill="#3e5e9c" stroke="#3e5e9c"></path><path d="M392.4 231L303.3 397L400.4 447Z" fill="#4871c4" stroke="#4871c4"></path><path d="M400.4 447L243.3 540L431.4 540Z" fill="#4e7ad8" stroke="#4e7ad8"></path><path d="M284.3 250L303.3 397L392.4 231Z" fill="#262930" stroke="#262930"></path><path d="M319.3 0L319.3 183L417.4 97Z" fill="#262930" stroke="#262930"></path><path d="M123.1 110L284.3 250L319.3 183Z" fill="#3a5589" stroke="#3a5589"></path><path d="M319.3 183L284.3 250L392.4 231Z" fill="#4e7ad8" stroke="#4e7ad8"></path><path d="M401.4 0L319.3 0L417.4 97Z" fill="#4e7ad8" stroke="#4e7ad8"></path><path d="M1686.7 540L1798.9 388L1621.7 388Z" fill="#4367b0" stroke="#4367b0"></path><path d="M1629.7 137L1781.9 0L1607.7 0Z" fill="#4e7ad8" stroke="#4e7ad8"></path><path d="M1686.7 540L1781.9 540L1798.9 388Z" fill="#5583ec" stroke="#5583ec"></path><path d="M184.1 540L243.3 540L303.3 397Z" fill="#2f3a52" stroke="#2f3a52"></path><path d="M303.3 397L243.3 540L400.4 447Z" fill="#364c76" stroke="#364c76"></path><path d="M184.1 540L303.3 397L129.1 361Z" fill="#364c76" stroke="#364c76"></path><path d="M1920 238L1821.9 261L1798.9 388Z" fill="#5583ec" stroke="#5583ec"></path><path d="M1798.9 388L1821.9 261L1616.7 291Z" fill="#364c76" stroke="#364c76"></path><path d="M1821.9 261L1803.9 128L1629.7 137Z" fill="#262930" stroke="#262930"></path><path d="M1803.9 128L1781.9 0L1629.7 137Z" fill="#3e5e9c" stroke="#3e5e9c"></path><path d="M129.1 361L303.3 397L284.3 250Z" fill="#2f3a52" stroke="#2f3a52"></path><path d="M96.1 317L129.1 361L284.3 250Z" fill="#324364" stroke="#324364"></path><path d="M319.3 0L184.1 0L319.3 183Z" fill="#5583ec" stroke="#5583ec"></path><path d="M1821.9 261L1920 238L1803.9 128Z" fill="#4367b0" stroke="#4367b0"></path><path d="M1803.9 128L1920 0L1781.9 0Z" fill="#5583ec" stroke="#5583ec"></path><path d="M1781.9 540L1920 452L1798.9 388Z" fill="#4871c4" stroke="#4871c4"></path><path d="M1920 452L1920 238L1798.9 388Z" fill="#4367b0" stroke="#4367b0"></path><path d="M1781.9 540L1920 540L1920 452Z" fill="#262930" stroke="#262930"></path><path d="M123.1 110L96.1 317L284.3 250Z" fill="#364c76" stroke="#364c76"></path><path d="M129.1 361L0 420L184.1 540Z" fill="#3a5589" stroke="#3a5589"></path><path d="M184.1 0L123.1 110L319.3 183Z" fill="#3a5589" stroke="#3a5589"></path><path d="M1920 238L1920 128L1803.9 128Z" fill="#2f3a52" stroke="#2f3a52"></path><path d="M1920 128L1920 0L1803.9 128Z" fill="#2b3241" stroke="#2b3241"></path><path d="M0 240L0 420L96.1 317Z" fill="#5583ec" stroke="#5583ec"></path><path d="M96.1 317L0 420L129.1 361Z" fill="#4871c4" stroke="#4871c4"></path><path d="M0 95L0 240L123.1 110Z" fill="#3e5e9c" stroke="#3e5e9c"></path><path d="M123.1 110L0 240L96.1 317Z" fill="#2f3a52" stroke="#2f3a52"></path><path d="M0 420L0 540L184.1 540Z" fill="#3a5589" stroke="#3a5589"></path><path d="M0 0L0 95L123.1 110Z" fill="#4871c4" stroke="#4871c4"></path><path d="M184.1 0L0 0L123.1 110Z" fill="#2f3a52" stroke="#2f3a52"></path></g></svg>